<svg version="1.1" viewBox="0.0 0.0 907.9448818897638 221.4304461942257" fill="none" stroke="none" stroke-linecap="square" stroke-miterlimit="10" xmlns:xlink="http://www.w3.org/1999/xlink" xmlns="http://www.w3.org/2000/svg"><clipPath id="p.0"><path d="m0 0l907.9449 0l0 221.43045l-907.9449 0l0 -221.43045z" clip-rule="nonzero"/></clipPath><g clip-path="url(#p.0)"><path fill="#000000" fill-opacity="0.0" d="m0 0l907.9449 0l0 221.43045l-907.9449 0z" fill-rule="evenodd"/><path fill="#e95420" d="m14.554198 110.71481l0 0c0 -43.556572 35.16856 -78.86615 78.55118 -78.86615l0 0c20.833069 0 40.812866 8.30909 55.544067 23.099358c14.731216 14.790272 23.00711 34.850185 23.00711 55.76679l0 0c0 43.556564 -35.168564 78.866135 -78.55118 78.866135l0 0c-43.382618 0 -78.55118 -35.30957 -78.55118 -78.866135z" fill-rule="evenodd"/><path stroke="#e95420" stroke-width="16.0" stroke-linejoin="round" stroke-linecap="butt" d="m14.554198 110.71481l0 0c0 -43.556572 35.16856 -78.86615 78.55118 -78.86615l0 0c20.833069 0 40.812866 8.30909 55.544067 23.099358c14.731216 14.790272 23.00711 34.850185 23.00711 55.76679l0 0c0 43.556564 -35.168564 78.866135 -78.55118 78.866135l0 0c-43.382618 0 -78.55118 -35.30957 -78.55118 -78.866135z" fill-rule="evenodd"/><path fill="#000000" fill-opacity="0.0" d="m201.48814 21.125984l690.4252 0l0 179.52756l-690.4252 0z" fill-rule="evenodd"/><path fill="#000000" d="m242.09752 147.94165q19.468735 0 19.468735 -13.3125q0 -4.09375 -1.734375 -6.9687576q-1.734375 -2.890625 -4.6718597 -5.0q-2.9375 -2.109375 -6.71875 -3.640625q-3.78125 -1.546875 -8.0 -3.078125q-4.859375 -1.671875 -9.21875 -3.78125q-4.34375 -2.109375 -7.546875 -4.984375q-3.203125 -2.890625 -5.0625 -6.859375q-1.859375 -3.96875 -1.859375 -9.59375q0 -11.65625 7.9375 -18.171875q7.9375 -6.53125 21.890625 -6.53125q8.0625 0 14.656235 1.734375q6.59375 1.71875 9.671875 3.765625l-3.96875 10.109375q-2.6875 -1.65625 -8.0 -3.25q-5.3124847 -1.609375 -12.35936 -1.609375q-3.578125 0 -6.65625 0.765625q-3.0625 0.765625 -5.375 2.3125q-2.296875 1.53125 -3.640625 3.90625q-1.34375 2.359375 -1.34375 5.5625q0 3.578125 1.40625 6.015625q1.40625 2.421875 3.96875 4.28125q2.5625 1.859375 5.953125 3.40625q3.390625 1.53125 7.484375 3.0625q5.75 2.296875 10.54686 4.609375q4.8125 2.296875 8.328125 5.5q3.515625 3.203125 5.4375 7.625q1.921875 4.4062576 1.921875 10.687508q0 11.640625 -8.515625 17.921875q-8.5 6.265625 -23.999985 6.265625q-5.234375 0 -9.65625 -0.703125q-4.421875 -0.703125 -7.875 -1.65625q-3.453125 -0.96875 -5.953125 -2.046875q-2.5 -1.09375 -3.90625 -1.875l3.71875 -10.234375q2.9375 1.671875 8.953125 3.71875q6.015625 2.046875 14.71875 2.046875zm43.017868 -24.328133q0 -8.828125 2.546875 -15.421875q2.5625 -6.59375 6.78125 -10.9375q4.234375 -4.359375 9.734375 -6.53125q5.515625 -2.171875 11.265625 -2.171875q13.4375 0 20.609375 8.390625q7.171875 8.375 7.171875 25.53125q0 0.765625 0 1.984375q0 1.203125 -0.125 2.234375l-45.578125 0q0.78125 10.359383 6.015625 15.750008q5.25 5.375 16.390625 5.375q6.265625 0 10.546875 -1.09375q4.296875 -1.09375 6.484375 -2.109375l1.65625 9.984375q-2.171875 1.140625 -7.625 2.421875q-5.4375 1.28125 -12.34375 1.28125q-8.703125 0 -15.046875 -2.625q-6.328125 -2.625 -10.421875 -7.21875q-4.09375 -4.609375 -6.078125 -10.9375q-1.984375 -6.34375 -1.984375 -13.906258zm45.6875 -6.53125q0.140625 -8.0625 -4.03125 -13.234375q-4.15625 -5.1875 -11.453125 -5.1875q-4.09375 0 -7.234375 1.609375q-3.125 1.59375 -5.3125 4.15625q-2.171875 2.546875 -3.390625 5.875q-1.21875 3.328125 -1.59375 6.78125l33.015625 0zm54.145782 -28.28125q1.546875 0 3.515625 0.203125q1.984375 0.1875 3.90625 0.515625q1.921875 0.3125 3.515625 0.640625q1.609375 0.3125 2.375 0.5625l-2.046875 10.359375q-1.40625 -0.5 -4.671875 -1.203125q-3.265625 -0.703125 -8.375 -0.703125q-3.328125 0 -6.59375 0.703125q-3.265625 0.703125 -4.296875 0.953125l0 55.937508l-11.90625 0l0 -63.750008q4.234375 -1.53125 10.5 -2.875q6.28125 -1.34375 14.078125 -1.34375zm36.736115 67.96876l-11.90625 0l0 -66.56251l11.90625 0l0 66.56251zm-6.015625 -78.59376q-3.203125 0 -5.4375 -2.109375q-2.234375 -2.109375 -2.234375 -5.703125q0 -3.578125 2.234375 -5.6875q2.234375 -2.109375 5.4375 -2.109375q3.203125 0 5.4375 2.109375q2.25 2.109375 2.25 5.6875q0 3.59375 -2.25 5.703125q-2.234375 2.109375 -5.4375 2.109375zm49.024628 70.01563q4.21875 0 7.484375 -0.1875q3.265625 -0.1875 5.453125 -0.703125l0 -19.843758q-1.28125 -0.640625 -4.171875 -1.078125q-2.875 -0.453125 -6.96875 -0.453125q-2.6875 0 -5.703125 0.390625q-3.0 0.375 -5.5 1.59375q-2.5 1.2187576 -4.171875 3.3281326q-1.65625 2.109375 -1.65625 5.5625q0 6.40625 4.09375 8.90625q4.109375 2.484375 11.140625 2.484375zm-1.015625 -59.640633q7.15625 0 12.078125 1.859375q4.9375 1.84375 7.9375 5.234375q3.015625 3.390625 4.296875 8.0625q1.28125 4.671875 1.28125 10.3125l0 41.593758q-1.53125 0.265625 -4.296875 0.71875q-2.75 0.4375 -6.203125 0.8125q-3.453125 0.390625 -7.484375 0.703125q-4.03125 0.328125 -8.0 0.328125q-5.625 0 -10.375 -1.15625q-4.734375 -1.140625 -8.1875 -3.640625q-3.453125 -2.5 -5.375 -6.59375q-1.921875 -4.09375 -1.921875 -9.859375q0 -5.5 2.234375 -9.468758q2.25 -3.96875 6.078125 -6.390625q3.84375 -2.4375 8.96875 -3.59375q5.125 -1.15625 10.75 -1.15625q1.796875 0 3.71875 0.203125q1.921875 0.1875 3.640625 0.515625q1.734375 0.3125 3.015625 0.578125q1.28125 0.25 1.796875 0.375l0 -3.328125q0 -2.953125 -0.640625 -5.828125q-0.640625 -2.875 -2.3125 -5.109375q-1.65625 -2.25 -4.546875 -3.59375q-2.875 -1.34375 -7.484375 -1.34375q-5.890625 0 -10.3125 0.84375q-4.40625 0.828125 -6.578125 1.71875l-1.40625 -9.859375q2.296875 -1.015625 7.671875 -1.96875q5.375 -0.96875 11.65625 -0.96875zm65.269165 69.50001q-11.0 -0.25 -15.609375 -4.734375q-4.6094055 -4.484375 -4.6094055 -13.953125l0 -79.87501l11.9062805 -2.046875l0 80.00001q0 2.9375 0.5 4.859375q0.515625 1.921875 1.671875 3.078125q1.15625 1.15625 3.078125 1.734375q1.921875 0.5625 4.734375 0.953125l-1.671875 9.984375zm116.9964 -89.98438q-4.859375 14.078125 -9.28125 26.046875q-4.421875 11.96875 -8.640625 22.71875q-4.21875 10.75 -8.390625 20.546883q-4.15625 9.796875 -8.5 19.390625l-11.65625 0q-4.34375 -9.59375 -8.515625 -19.390625q-4.15625 -9.796883 -8.453125 -20.546883q-4.28125 -10.75 -8.765625 -22.71875q-4.46875 -11.96875 -9.203125 -26.046875l13.6875 0q6.921875 20.21875 13.578125 38.90625q6.65625 18.6875 13.6875 35.078133q7.046875 -16.250008 13.703125 -35.000008q6.65625 -18.765625 13.4375 -38.984375l13.3125 0zm34.046143 80.12501q4.21875 0 7.484375 -0.1875q3.265625 -0.1875 5.453125 -0.703125l0 -19.843758q-1.28125 -0.640625 -4.171875 -1.078125q-2.875 -0.453125 -6.96875 -0.453125q-2.6875 0 -5.703125 0.390625q-3.0 0.375 -5.5 1.59375q-2.5 1.2187576 -4.171875 3.3281326q-1.65625 2.109375 -1.65625 5.5625q0 6.40625 4.09375 8.90625q4.109375 2.484375 11.140625 2.484375zm-1.015625 -59.640633q7.15625 0 12.078125 1.859375q4.9375 1.84375 7.9375 5.234375q3.015625 3.390625 4.296875 8.0625q1.28125 4.671875 1.28125 10.3125l0 41.593758q-1.53125 0.265625 -4.296875 0.71875q-2.75 0.4375 -6.203125 0.8125q-3.453125 0.390625 -7.484375 0.703125q-4.03125 0.328125 -8.0 0.328125q-5.625 0 -10.375 -1.15625q-4.734375 -1.140625 -8.1875 -3.640625q-3.453125 -2.5 -5.375 -6.59375q-1.921875 -4.09375 -1.921875 -9.859375q0 -5.5 2.234375 -9.468758q2.25 -3.96875 6.078125 -6.390625q3.84375 -2.4375 8.96875 -3.59375q5.125 -1.15625 10.75 -1.15625q1.796875 0 3.71875 0.203125q1.921875 0.1875 3.640625 0.515625q1.734375 0.3125 3.015625 0.578125q1.28125 0.25 1.796875 0.375l0 -3.328125q0 -2.953125 -0.640625 -5.828125q-0.640625 -2.875 -2.3125 -5.109375q-1.65625 -2.25 -4.546875 -3.59375q-2.875 -1.34375 -7.484375 -1.34375q-5.890625 0 -10.3125 0.84375q-4.40625 0.828125 -6.578125 1.71875l-1.40625 -9.859375q2.296875 -1.015625 7.671875 -1.96875q5.375 -0.96875 11.65625 -0.96875zm98.300415 66.29688q-4.09375 1.03125 -10.8125 2.171875q-6.71875 1.15625 -15.5625 1.15625q-7.671875 0 -12.921875 -2.234375q-5.25 -2.25 -8.453125 -6.34375q-3.203125 -4.09375 -4.609375 -9.65625q-1.40625 -5.578125 -1.40625 -12.359383l0 -37.375l11.90625 0l0 34.8125q0 12.171883 3.84375 17.421883q3.84375 5.234375 12.921875 5.234375q1.921875 0 3.96875 -0.125q2.046875 -0.125 3.84375 -0.3125q1.796875 -0.203125 3.265625 -0.390625q1.46875 -0.1875 2.109375 -0.453125l0 -56.187508l11.90625 0l0 64.64063zm40.440735 3.203125q-11.0 -0.25 -15.609375 -4.734375q-4.609375 -4.484375 -4.609375 -13.953125l0 -79.87501l11.90625 -2.046875l0 80.00001q0 2.9375 0.5 4.859375q0.515625 1.921875 1.671875 3.078125q1.15625 1.15625 3.078125 1.734375q1.921875 0.5625 4.734375 0.953125l-1.671875 9.984375zm26.115906 -67.84376l25.21875 0l0 9.984375l-25.21875 0l0 30.718758q0 5.0 0.765625 8.265625q0.765625 3.25 2.296875 5.109375q1.546875 1.859375 3.84375 2.625q2.3125 0.765625 5.375 0.765625q5.390625 0 8.640625 -1.203125q3.265625 -1.21875 4.546875 -1.734375l2.3125 9.859375q-1.796875 0.890625 -6.28125 2.234375q-4.46875 1.34375 -10.234375 1.34375q-6.78125 0 -11.203125 -1.71875q-4.40625 -1.734375 -7.109375 -5.1875q-2.6875 -3.453125 -3.78125 -8.515625q-1.078125 -5.0625 -1.078125 -11.71875l0 -59.390633l11.90625 -2.046875l0 20.609375z" fill-rule="nonzero"/><path fill="#e95420" d="m31.393702 59.44357l129.92125 0l0 92.62991l-129.92125 0z" fill-rule="evenodd"/><path fill="#ffffff" d="m97.29183 103.57478q1.453125 0 2.453125 1.03125q1.015625 1.03125 1.015625 2.484375l0 23.765625q0 1.453125 -1.015625 2.46875q-1.0 1.0 -2.453125 1.0l-34.406254 0q-1.453125 0 -2.46875 -1.0q-1.0 -1.015625 -1.0 -2.46875l0 -23.765625q0 -1.453125 1.0 -2.484375q1.015625 -1.03125 2.46875 -1.03125l1.03125 0l0 -8.671875q0 -4.3125 2.1562538 -8.078125q2.15625 -3.78125 5.921875 -5.9375q3.78125 -2.15625 8.09375 -2.15625q4.3125 0 8.078125 2.15625q3.78125 2.15625 5.9375 5.9375q2.15625 3.765625 2.15625 8.078125l0 8.671875l1.03125 0zm26.296875 29.109375l-5.015625 5.015625l-5.015625 -5.015625l0 -3.328125l3.328125 -3.375l-3.328125 -3.328125l3.328125 -3.328125l-3.328125 -3.375l0 -12.609375q-5.203125 -1.734375 -8.390625 -6.09375q-3.1875 -4.359375 -3.1875 -9.609375q0 -4.3125 2.203125 -8.15625q2.203125 -3.84375 6.046875 -6.109375q3.84375 -2.28125 8.296875 -2.28125q4.453125 0 8.3125 2.234375q3.8750076 2.21875 6.0468826 6.0625q2.1875 3.84375 2.1875 8.25q0 5.15625 -3.140625 9.5625q-3.140625 4.40625 -8.343758 6.140625l0 29.34375zm-35.390625 -37.78125q0 -3.328125 -2.375 -5.734375q-2.359375 -2.421875 -5.734375 -2.421875q-3.421875 0 -5.765625 2.421875q-2.34375 2.40625 -2.34375 5.734375l0 8.671875l16.21875 0l0 -8.671875zm25.640625 -13.96875q0 1.828125 1.375 3.28125q1.390625 1.453125 3.359375 1.453125q1.96875 0 3.328125 -1.453125q1.359375 -1.453125 1.359375 -3.28125q0 -1.875 -1.390625 -3.296875q-1.375 -1.4375 -3.296875 -1.4375q-1.921875 0 -3.328125 1.40625q-1.40625 1.40625 -1.40625 3.328125zm-32.53125 39.046875q2.0625 -0.84375 2.0625 -3.0q0 -1.359375 -0.96875 -2.296875q-0.953125 -0.9375 -2.3125 -0.9375q-1.359375 0 -2.296875 0.9375q-0.9375 0.9375 -0.9375 2.296875q0 1.03125 0.5625 1.828125q0.5625 0.796875 1.453125 1.171875l-1.125 4.78125l4.6875 0l-1.125 -4.78125z" fill-rule="nonzero"/></g></svg>